<svg height="512pt" viewBox="0 0 512 512.0126" width="512pt" xmlns="http://www.w3.org/2000/svg"><path d="m301.832031 332.8125-20.226562 170.667969h-256c-9.414063-.027344-17.039063-7.652344-17.066407-17.066407v-51.203124c-.003906-49.15625 34.917969-91.382813 83.199219-100.605469zm0 0" fill="#283593"/><path d="m136.539062 334.21875 95.128907-.773438-52.460938 64.160157-42.667969-61.679688" fill="#bdc3c7"/><path d="m179.207031 384.011719-42.667969 6.160156-2.839843 35.320313 45.507812 77.988281 51.191407-110.789063zm0 0" fill="#9e9e9e"/><path d="m204.804688 287.84375v64.851562c-7.691407 11.097657-16.25 21.570313-25.597657 31.316407-9.347656-9.746094-17.910156-20.21875-25.601562-31.316407v-64.851562zm0 0" fill="#ffe0b2"/><path d="m93.871094 332.8125c-20.707032 16.753906-33.15625 41.648438-34.132813 68.265625 0 0 34.132813-18.449219 34.132813 8.535156 0 8.53125-8.53125 8.53125-8.53125 59.734375 0 0 51.199218-34.136718 93.867187 34.132813 0 0-8.535156-59.734375-34.132812-93.867188zm0 0" fill="#3f51b5"/><path d="m264.539062 332.8125c20.710938 16.753906 33.15625 41.648438 34.132813 68.265625 0 0-34.132813-18.449219-34.132813 8.535156 0 8.53125 8.535157 8.53125 8.535157 59.734375 0 0-51.203125-34.136718-93.867188 34.132813 0 0 8.53125-59.734375 34.132813-93.867188zm0 0" fill="#3f51b5"/><path d="m503.472656 332.8125v25.601562c.007813 6.789063-2.683594 13.308594-7.488281 18.109376-4.800781 4.804687-11.320313 7.5-18.113281 7.488281h-187.730469c-6.792969.011719-13.308594-2.683594-18.113281-7.488281-4.800782-4.800782-7.496094-11.320313-7.488282-18.109376v-25.601562c.027344-9.414062 7.652344-17.039062 17.066407-17.066406h204.800781c9.414062.027344 17.039062 7.652344 17.066406 17.066406zm0 0" fill="#624421"/><path d="m479.835938 332.8125v25.601562c.007812 6.789063-2.683594 13.308594-7.488282 18.109376-4.804687 4.804687-11.320312 7.5-18.113281 7.488281h-164.09375c-6.792969.011719-13.308594-2.683594-18.113281-7.488281-4.800782-4.800782-7.496094-11.320313-7.488282-18.109376v-25.601562c.027344-9.414062 7.652344-17.039062 17.066407-17.066406h181.164062c9.414063.027344 17.039063 7.652344 17.066407 17.066406zm0 0" fill="#825a2c"/><path d="m503.472656 358.414062v128c-.027344 9.414063-7.652344 17.039063-17.066406 17.066407h-204.800781c-9.414063-.027344-17.039063-7.652344-17.066407-17.066407v-128c-.007812 6.789063 2.6875 13.308594 7.488282 18.109376 4.804687 4.804687 11.320312 7.5 18.113281 7.488281h187.730469c.65625.015625 1.3125-.011719 1.964844-.085938 13.347656-.996093 23.660156-12.128906 23.636718-25.511719zm0 0" fill="#6d4122"/><path d="m479.835938 383.925781v102.488281c-.027344 9.414063-7.652344 17.039063-17.066407 17.066407h-181.164062c-9.414063-.027344-17.039063-7.652344-17.066407-17.066407v-102.488281c.652344.074219 1.308594.101563 1.964844.085938h211.367188c.65625.015625 1.3125-.011719 1.964844-.085938zm0 0" fill="#91562d"/><g fill="#f5f5f5"><path d="m407.105469 420.644531-17.066407 17.066407c-3.332031 3.332031-8.734374 3.332031-12.066406 0l-17.066406-17.066407c-1.601562-1.597656-2.5-3.769531-2.5-6.03125v-30.601562h51.199219v30.601562c0 2.261719-.898438 4.433594-2.5 6.03125zm0 0"/><path d="m179.207031 384.011719c-12.476562 6.964843-23.957031 15.574219-34.132812 25.601562-25.601563-17.066406-51.203125-76.800781-51.203125-76.800781 13.730468-4.910156 28.105468-7.785156 42.667968-8.535156 5.011719 9.867187 10.714844 19.363281 17.066407 28.417968 7.691406 11.097657 16.253906 21.570313 25.601562 31.316407zm0 0"/><path d="m264.539062 332.8125s-25.597656 59.734375-51.199218 76.800781c-10.179688-10.027343-21.660156-18.636719-34.132813-25.601562 9.347657-9.746094 17.90625-20.21875 25.597657-31.316407 6.355468-9.054687 12.058593-18.550781 17.066406-28.417968 14.5625.75 28.9375 3.625 42.667968 8.535156zm0 0"/></g><path d="m324.273438 149.347656c0 1.363282 0 19.882813-.085938 21.332032h-289.960938c-.085937-1.449219-.085937-19.96875-.085937-21.332032.980469-74.363281 58.992187-135.460937 133.203125-140.289062 3.925781-.34375 7.851562-.511719 11.863281-.511719 78.929688-1.15625 143.867188 61.867187 145.066407 140.800781zm0 0" fill="#6d4122"/><path d="m300.636719 149.347656c0 1.363282 0 19.882813-.085938 21.332032h-266.324219c-.085937-1.449219-.085937-19.96875-.085937-21.332032.980469-74.363281 58.992187-135.460937 133.203125-140.289062 74.242188 4.792968 132.300781 65.898437 133.292969 140.289062zm0 0" fill="#91562d"/><path d="m306.609375 162.144531h17.664063c9.398437.070313 17 7.671875 17.066406 17.066407-.027344 9.414062-7.652344 17.039062-17.066406 17.066406h-290.132813c-9.414063-.027344-17.039063-7.652344-17.066406-17.066406.066406-9.394532 7.667969-16.996094 17.066406-17.066407zm0 0" fill="#dfc49c"/><path d="m307.207031 173.152344c-.011719 4.050781-.242187 8.09375-.683593 12.117187-6.65625 58.96875-61.097657 104.875-127.316407 104.875-3.925781 0-7.851562-.167969-11.777343-.511719-60.757813-5.035156-109.3125-48.894531-115.539063-104.363281-.445313-4.023437-.671875-8.066406-.683594-12.117187.015625-6.78125.644531-13.550782 1.875-20.222656.769531-3.753907 1.707031-7.507813 2.816407-11.179688 9.132812-20.90625 31.660156-63.058594 67.585937-70.996094 15.027344-2.957031 30.617187-.351562 43.859375 7.339844h.085938c4.070312 2.175781 8.003906 4.597656 11.777343 7.253906 9.5625-7.046875 20.488281-12.019531 32.085938-14.59375 49.832031-10.238281 80.296875 45.824219 91.21875 70.996094 1.109375 3.671875 2.050781 7.425781 2.816406 11.179688 1.234375 6.671874 1.863281 13.441406 1.878906 20.222656zm0 0" fill="#dfc49c"/><path d="m283.570312 173.152344c-.015624 4.050781-.242187 8.09375-.683593 12.117187-6.230469 55.382813-54.699219 99.328125-115.457031 104.363281-60.757813-5.035156-109.3125-48.894531-115.539063-104.363281-.445313-4.023437-.671875-8.066406-.683594-12.117187.015625-6.78125.644531-13.550782 1.875-20.222656.769531-3.753907 1.707031-7.507813 2.816407-11.179688 9.132812-20.90625 31.660156-63.058594 67.585937-70.996094 11.59375 2.574219 22.523437 7.546875 32.085937 14.59375 3.773438-2.65625 7.703126-5.078125 11.773438-7.253906h.085938c4.070312 2.175781 8.003906 4.597656 11.777343 7.253906 9.5625-7.046875 20.488281-12.019531 32.085938-14.59375 36.007812 7.9375 58.453125 50.089844 67.582031 70.996094 1.109375 3.671875 2.046875 7.425781 2.816406 11.179688 1.234375 6.671874 1.859375 13.441406 1.878906 20.222656zm0 0" fill="#ffe0b2"/><path d="m179.207031 298.679688c-70.183593 0-128.5625-48.359376-135.796875-112.476563-1.304687-11.585937-.875-23.304687 1.28125-34.765625.878906-4.359375 1.894532-8.414062 3.046875-12.175781.886719-2.914063 3.265625-5.132813 6.238281-5.820313 2.96875-.6875 6.082032.261719 8.160157 2.488282 2.082031 2.230468 2.8125 5.398437 1.925781 8.316406-1.03125 3.367187-1.902344 6.882812-2.609375 10.417968-1.835937 9.78125-2.199219 19.78125-1.082031 29.667969 6.253906 55.4375 57.347656 97.28125 118.835937 97.28125s112.578125-41.84375 118.835938-97.324219c1.121093-9.929687.746093-19.96875-1.109375-29.78125-.679688-3.375-1.546875-6.894531-2.578125-10.261718-1.375-4.507813 1.164062-9.277344 5.671875-10.652344 4.507812-1.375 9.277344 1.164062 10.652344 5.671875 1.152343 3.765625 2.167968 7.816406 3.019531 12.015625 1.335937 7.210938 2.019531 14.523438 2.039062 21.855469-.007812 4.351562-.25 8.699219-.730469 13.027343-7.238281 64.15625-65.617187 112.515626-135.800781 112.515626zm0 0"/><path d="m51.890625 204.8125h-17.75c-14.132813-.015625-25.585937-11.46875-25.601563-25.601562.066407-14.109376 11.488282-25.53125 25.601563-25.597657h17.664063c4.710937 0 8.53125 3.820313 8.53125 8.53125 0 4.714844-3.820313 8.535157-8.53125 8.535157h-17.578126c-2.253906-.039063-4.421874.847656-6.003906 2.449218-1.675781 1.582032-2.621094 3.78125-2.617187 6.082032.003906 4.710937 3.824219 8.53125 8.535156 8.535156h17.75c4.710937 0 8.53125 3.820312 8.53125 8.53125 0 4.714844-3.820313 8.535156-8.53125 8.535156zm0 0"/><path d="m324.273438 204.8125h-17.75c-4.710938 0-8.53125-3.820312-8.53125-8.535156 0-4.710938 3.820312-8.53125 8.53125-8.53125h17.75c4.710937-.003906 8.527343-3.824219 8.53125-8.535156.023437-2.226563-.867188-4.363282-2.457032-5.921876-1.578125-1.671874-3.777344-2.617187-6.074218-2.609374h-17.664063c-4.714844 0-8.535156-3.820313-8.535156-8.535157 0-4.710937 3.820312-8.53125 8.535156-8.53125h17.578125c14.144531.023438 25.617188 11.457031 25.683594 25.597657-.011719 14.132812-11.464844 25.585937-25.597656 25.601562zm0 0"/><path d="m324.199219 170.679688c-.171875 0-.332031-.007813-.5-.015626-4.703125-.273437-8.296875-4.300781-8.03125-9 .082031-1.601562.070312-11.019531.070312-12.316406-1.277343-74.183594-62.347656-133.34375-136.53125-132.269531-74.1875-1.074219-135.253906 58.085937-136.535156 132.269531 0 1.304688-.007813 10.730469.070313 12.324219.175781 3.042969-1.289063 5.949219-3.839844 7.621094-2.550782 1.671875-5.796875 1.855469-8.519532.480469-2.722656-1.371094-4.507812-4.089844-4.679687-7.136719-.085937-1.507813-.097656-11.875-.097656-13.289063 1.289062-83.605468 69.992187-150.402344 153.601562-149.3359372 83.609375-1.0664068 152.3125 65.7304692 153.597657 149.3359372 0 1.414063-.011719 11.78125-.09375 13.289063-.261719 4.511719-3.996094 8.035156-8.511719 8.042969zm0 0"/><path d="m55.898438 150.328125c-2.257813.011719-4.425782-.878906-6.027344-2.472656-1.601563-1.59375-2.503906-3.757813-2.503906-6.019531 0-1.195313.238281-2.378907.707031-3.480469 10.242187-23.542969 32.933593-64.585938 69.867187-75 21.136719-5.984375 43.398438-.925781 66.15625 15 3.789063 2.726562 4.679688 7.992187 2.007813 11.816406-2.675781 3.824219-7.929688 4.789063-11.789063 2.164063-18.355468-12.847657-35.765625-17.074219-51.742187-12.554688-31.128907 8.78125-51.378907 48.273438-58.742188 65.132812-1.28125 3.261719-4.425781 5.40625-7.933593 5.414063zm0 0"/><path d="m302.511719 150.328125c-3.660157.011719-6.917969-2.316406-8.09375-5.78125-7.496094-17.066406-27.675781-56.050781-58.582031-64.769531-15.96875-4.515625-33.382813-.292969-51.738282 12.558594-2.5 1.796874-5.769531 2.113281-8.5625.824218-2.792968-1.289062-4.679687-3.980468-4.929687-7.046875-.253907-3.066406 1.164062-6.03125 3.707031-7.761719 22.757812-15.921874 45.035156-20.972656 66.160156-15 36.933594 10.417969 59.628906 51.457032 69.867188 75 1.144531 2.644532.886718 5.683594-.6875 8.097657-1.578125 2.410156-4.257813 3.867187-7.140625 3.878906zm0 0"/><path d="m153.605469 361.230469c-4.710938 0-8.53125-3.824219-8.53125-8.535157v-64.851562c0-4.714844 3.820312-8.535156 8.53125-8.535156 4.714843 0 8.535156 3.820312 8.535156 8.535156v64.851562c0 4.710938-3.820313 8.535157-8.535156 8.535157zm0 0"/><path d="m204.804688 361.230469c-4.710938 0-8.53125-3.824219-8.53125-8.535157v-64.851562c0-4.714844 3.820312-8.535156 8.53125-8.535156 4.714843 0 8.535156 3.820312 8.535156 8.535156v64.851562c0 4.710938-3.820313 8.535157-8.535156 8.535157zm0 0"/><path d="m332.804688 512.011719h-307.199219c-14.132813-.015625-25.5820315-11.46875-25.5976565-25.597657v-51.203124c-.01171875-53.257813 37.8281255-99.011719 90.1445315-108.992188 4.597656-.800781 8.984375 2.234375 9.855468 6.820312.867188 4.585938-2.109374 9.015626-6.679687 9.949219-44.261719 8.449219-76.273437 47.164063-76.253906 92.222657v51.203124c.003906 4.710938 3.820312 8.527344 8.53125 8.53125h307.199219c4.714843 0 8.535156 3.820313 8.535156 8.535157 0 4.710937-3.820313 8.53125-8.535156 8.53125zm0 0"/><path d="m145.074219 418.144531c-1.683594 0-3.328125-.5-4.730469-1.433593-27.390625-18.265626-53.226562-78.007813-54.308594-80.539063-.9375-2.191406-.917968-4.679687.058594-6.851563.976562-2.175781 2.820312-3.84375 5.082031-4.597656 14.597657-5.214844 29.882813-8.242187 45.363281-8.976562 3.234376 0 6.1875 1.824218 7.632813 4.714844 10.910156 21.011718 24.734375 40.375 41.066406 57.515624 1.941407 1.941407 2.828125 4.695313 2.390625 7.402344-.441406 2.707032-2.15625 5.039063-4.609375 6.265625-11.652343 6.554688-22.382812 14.625-31.921875 24-1.59375 1.601563-3.761718 2.5-6.023437 2.5zm-39.410157-80.015625c8.339844 17.566406 23.980469 46.515625 38.9375 60.234375 6.617188-5.988281 13.675782-11.464843 21.113282-16.394531-13.175782-14.957031-24.644532-31.332031-34.191406-48.832031-8.75.917969-17.402344 2.589843-25.863282 4.992187zm0 0"/><path d="m213.34375 418.144531c-2.261719.003907-4.433594-.894531-6.03125-2.5-9.539062-9.371093-20.269531-17.441406-31.921875-24-2.453125-1.226562-4.164063-3.558593-4.605469-6.265625-.4375-2.707031.449219-5.457031 2.386719-7.398437 16.324219-17.148438 30.148437-36.511719 41.070313-57.515625 1.445312-2.890625 4.398437-4.71875 7.628906-4.71875 15.484375.734375 30.773437 3.761718 45.367187 8.976562 2.261719.753906 4.105469 2.421875 5.082031 4.597656.976563 2.171876 1 4.660157.0625 6.851563-1.085937 2.53125-26.914062 62.273437-54.308593 80.539063-1.402344.933593-3.046875 1.433593-4.730469 1.433593zm-20.640625-36.175781c7.4375 4.929688 14.496094 10.40625 21.113281 16.394531 14.960938-13.71875 30.597656-42.667969 38.9375-60.234375-8.460937-2.398437-17.113281-4.070312-25.855468-4.992187-9.550782 17.5-21.019532 33.878906-34.195313 48.832031zm0 0"/><path d="m179.207031 512.011719c-2.941406 0-5.679687-1.515625-7.238281-4.011719-13.3125-21.296875-28.613281-33.941406-45.488281-37.574219-12.460938-2.554687-25.429688-.414062-36.40625 6.015625-2.621094 1.746094-5.984375 1.910156-8.761719.425782-2.773438-1.484376-4.503906-4.375-4.507812-7.519532 0-38.035156 4.652343-49.425781 7.429687-56.238281.589844-1.082031.964844-2.269531 1.105469-3.496094 0-2.941406-.554688-5.027343-1.480469-5.574219-7.015625-.839843-14.109375.769532-20.074219 4.558594-2.644531 1.414063-5.839844 1.339844-8.417968-.199218-2.574219-1.539063-4.15625-4.316407-4.160157-7.320313.914063-29.320313 14.636719-56.765625 37.546875-75.09375 3.765625-2.832031 9.117188-2.074219 11.949219 1.691406 2.832031 3.769531 2.074219 9.117188-1.691406 11.953125-14.945313 12.40625-25.328125 29.441406-29.511719 48.410156 7.570312-2.644531 15.882812-2.167968 23.097656 1.332032 6.792969 4.386718 10.574219 12.191406 9.808594 20.242187-.078125 3.445313-.886719 6.835938-2.367188 9.949219-4.339843 11.632812-6.355468 24.007812-5.9375 36.417969 11.570313-3.976563 24.003907-4.746094 35.976563-2.234375 12.386719 2.816406 23.839844 8.773437 33.257813 17.300781-5.019532-20.09375-13.507813-39.152344-25.089844-56.320313-1.910156-2.433593-2.351563-5.710937-1.15625-8.5625 1.195312-2.855468 3.839844-4.835937 6.914062-5.183593 3.074219-.347657 6.09375.996093 7.894532 3.511719 26.609374 35.476562 35.398437 95.25 35.757812 97.773437.351562 2.453125-.375 4.933594-1.996094 6.804687-1.625 1.871094-3.976562 2.945313-6.453125 2.941407zm0 0"/><path d="m179.207031 512.011719c-2.476562 0-4.828125-1.074219-6.449219-2.941407-1.621093-1.871093-2.351562-4.351562-2-6.800781.359376-2.523437 9.144532-62.296875 35.753907-97.773437 1.8125-2.492188 4.824219-3.816406 7.882812-3.464844 3.058594.351562 5.691407 2.324219 6.886719 5.164062 1.199219 2.839844.769531 6.101563-1.113281 8.539063-11.578125 17.152344-20.070313 36.195313-25.089844 56.273437 19.410156-18.433593 47.808594-23.816406 72.617187-13.765624 2.925782 1.0625 5.039063 3.628906 5.519532 6.703124.480468 3.074219-.75 6.164063-3.210938 8.066407-2.460937 1.902343-5.761718 2.316406-8.613281 1.078125-15.894531-6.308594-46.769531-10.191406-74.945313 34.910156-1.558593 2.496094-4.292968 4.015625-7.238281 4.011719zm0 0"/><path d="m486.40625 512.011719h-204.800781c-14.132813-.015625-25.582031-11.46875-25.597657-25.597657v-153.601562c.015626-14.132812 11.464844-25.585938 25.597657-25.601562h204.800781c14.132812.015624 25.585938 11.46875 25.601562 25.601562v153.601562c-.015624 14.128907-11.46875 25.582032-25.601562 25.597657zm-204.800781-187.734375c-4.710938.007812-8.527344 3.824218-8.53125 8.535156v153.601562c.003906 4.710938 3.820312 8.527344 8.53125 8.53125h204.800781c4.710938-.003906 8.527344-3.820312 8.535156-8.53125v-153.601562c-.007812-4.710938-3.824218-8.527344-8.535156-8.535156zm0 0"/><path d="m443.738281 324.277344c-4.710937 0-8.53125-3.820313-8.53125-8.53125v-8.535156c-.015625-14.128907-11.46875-25.582032-25.601562-25.597657h-51.199219c-14.132812.015625-25.585938 11.46875-25.601562 25.597657v8.535156c0 4.710937-3.820313 8.53125-8.53125 8.53125-4.714844 0-8.535157-3.820313-8.535157-8.53125v-8.535156c.027344-23.550782 19.117188-42.636719 42.667969-42.664063h51.199219c23.554687.027344 42.640625 19.113281 42.667969 42.664063v8.535156c0 4.710937-3.820313 8.53125-8.535157 8.53125zm0 0"/><path d="m477.871094 392.546875h-187.730469c-18.84375-.019531-34.113281-15.292969-34.132813-34.132813v-8.535156c0-4.710937 3.820313-8.53125 8.53125-8.53125 4.714844 0 8.535157 3.820313 8.535157 8.53125v8.535156c.007812 9.417969 7.644531 17.054688 17.066406 17.066407h187.730469c9.421875-.011719 17.058594-7.648438 17.070312-17.066407v-8.535156c0-4.710937 3.820313-8.53125 8.53125-8.53125 4.714844 0 8.535156 3.820313 8.535156 8.53125v8.535156c-.019531 18.839844-15.292968 34.113282-34.136718 34.132813zm0 0"/><path d="m384.007812 452.277344c-2.265624.003906-4.4375-.894532-6.035156-2.5l-25.597656-25.597656c-1.601562-1.601563-2.503906-3.769532-2.503906-6.035157v-34.132812c0-4.710938 3.824218-8.53125 8.535156-8.53125h51.199219c4.714843 0 8.535156 3.820312 8.535156 8.53125v34.132812c0 2.265625-.898437 4.433594-2.5 6.035157l-25.601563 25.597656c-1.597656 1.605468-3.769531 2.503906-6.03125 2.5zm-17.066406-37.664063 17.066406 17.066407 17.066407-17.066407v-22.066406h-34.132813zm0 0"/></svg>